<?xml version="1.0" standalone="no"?>
<!DOCTYPE svg PUBLIC "-//W3C//DTD SVG 20010904//EN"
 "http://www.w3.org/TR/2001/REC-SVG-20010904/DTD/svg10.dtd">
<svg version="1.0" xmlns="http://www.w3.org/2000/svg"
 width="460.000000pt" height="460.000000pt" viewBox="0 0 460.000000 460.000000"
 preserveAspectRatio="xMidYMid meet">
<metadata>
Created by potrace 1.14, written by Peter Selinger 2001-2017
</metadata>
<g transform="translate(0.000000,460.000000) scale(0.100000,-0.100000)"
fill="#000000" stroke="none">
<path d="M0 3180 l0 -1420 988 0 987 -1 45 -56 c25 -30 50 -61 55 -67 6 -6 41
-48 78 -93 85 -103 110 -123 155 -123 42 0 61 19 215 207 l108 133 984 0 985
0 0 1420 0 1420 -2300 0 -2300 0 0 -1420z"/>
<path d="M880 1400 c-19 -5 -47 -12 -62 -16 -46 -11 -98 -64 -105 -106 -3 -20
-2 -45 1 -55 6 -15 10 -13 27 14 12 20 43 43 77 60 53 26 65 28 182 28 117 0
129 -2 183 -29 35 -17 66 -40 77 -58 l18 -30 7 31 c13 62 -28 112 -125 148
-43 17 -233 25 -280 13z"/>
<path d="M3292 1255 l3 -70 28 3 c19 2 40 -5 62 -22 32 -25 31 -22 -22 56 -77
114 -74 112 -71 33z"/>
<path d="M3839 1248 c-30 -44 -37 -59 -23 -53 10 5 31 9 47 9 26 1 27 3 27 54
0 28 -2 52 -5 52 -2 0 -23 -28 -46 -62z"/>
<path d="M2200 1249 c-24 -10 -24 -11 -5 -22 28 -17 193 -15 225 2 23 13 24
15 5 22 -29 11 -196 9 -225 -2z"/>
<path d="M1403 1188 c-31 -116 -126 -179 -301 -200 -126 -15 -281 -1 -356 32
-59 27 -131 97 -145 142 -10 30 -10 28 -5 -17 8 -66 34 -115 85 -159 70 -59
120 -71 309 -71 211 0 256 15 369 119 l54 50 19 -24 c19 -23 19 -23 16 71 -2
75 -6 94 -18 97 -11 2 -19 -11 -27 -40z"/>
<path d="M1610 1212 c-41 -16 -45 -21 -48 -55 -4 -44 13 -49 59 -15 45 33 155
38 205 9 40 -24 54 -20 54 15 0 17 -10 30 -32 44 -43 26 -172 27 -238 2z"/>
<path d="M2738 1189 c-19 -19 -28 -38 -28 -60 l0 -33 17 24 c21 30 50 53 81
62 30 8 81 -7 98 -29 17 -22 18 -12 2 21 -11 26 -21 29 -108 39 -27 3 -40 -1
-62 -24z"/>
<path d="M2570 1203 c-8 -4 -21 -14 -30 -25 -29 -35 -126 -61 -230 -60 -52 0
-108 5 -125 11 l-30 11 27 -24 c19 -17 44 -26 85 -30 59 -7 157 6 178 24 8 7
20 1 40 -20 21 -22 34 -28 52 -24 13 4 30 1 38 -6 13 -11 15 -2 15 69 0 44 -1
81 -2 80 -2 0 -10 -3 -18 -6z"/>
<path d="M2013 1137 c-13 -5 -23 -16 -23 -24 0 -42 -73 -101 -152 -122 -48
-14 -209 -11 -255 4 -22 7 -23 5 -23 -63 l0 -70 29 29 c27 27 35 29 103 29
124 0 209 31 280 102 25 25 44 22 71 -9 92 -111 166 -153 268 -153 57 0 78 5
113 25 54 32 72 52 79 92 l6 31 -71 -20 c-180 -51 -362 8 -395 128 -7 28 -10
30 -30 21z"/>
<path d="M3657 1004 c-15 -20 -27 -24 -70 -24 -29 0 -57 3 -63 8 -5 4 1 -3 14
-15 34 -34 72 -29 112 12 18 19 32 37 29 39 -2 2 -12 -7 -22 -20z"/>
<path d="M2610 965 c15 -18 51 -16 58 3 2 8 -8 12 -33 12 -33 0 -36 -2 -25
-15z"/>
<path d="M1480 785 c15 -18 51 -16 58 3 2 8 -8 12 -33 12 -33 0 -36 -2 -25
-15z"/>
<path d="M0 305 l0 -305 2300 0 2300 0 0 305 0 305 -2300 0 -2300 0 0 -305z"/>
</g>
</svg>
